# xmcd
#
# Track frame offsets:
#	150
#	15707
#	28955
#	46065
#	66200
#	82332
#	101152
#	123132
#	144110
#	160295
#	179392
#	196465
#	212455
#
# Disc length: 3026 seconds
#
# Revision: 3
# Processed by: cddbd v1.5.2PL0 Copyright (c) Steve Scherf et al.
# Submitted via: EasyCDDAExtractor 16.0.8.1
#
DISCID=b20bd00d
DTITLE=κυριαζής χρήστος - μου θυμίζεις τη μάνα μου
DYEAR=1992
DGENRE=Country
TTITLE0=μου θυμίζεις τη μάνα μου
TTITLE1=ξέρω γιατί θέλεις να με πονάς
TTITLE2=έχω κλάψει
TTITLE3=δέν προσκύνησα
TTITLE4=σου ανήκω
TTITLE5=τα τσιγάρα, τα ποτά και τα ξενύχτια
TTITLE6=έρχεσαι - φεύγεις
TTITLE7=επιμένω
TTITLE8=η φυλακή
TTITLE9=ήρθε η ώρα σου
TTITLE10=κάθε δειλινό
TTITLE11=τώραπου βρίσκεσαι
TTITLE12=εύκολα
EXTD=
EXTT0=
EXTT1=
EXTT2=
EXTT3=
EXTT4=
EXTT5=
EXTT6=
EXTT7=
EXTT8=
EXTT9=
EXTT10=
EXTT11=
EXTT12=
PLAYORDER=
